<mxfile host="Electron" agent="Mozilla/5.0 (Macintosh; Intel Mac OS X 10_15_7) AppleWebKit/537.36 (KHTML, like Gecko) draw.io/22.0.2 Chrome/114.0.5735.289 Electron/25.8.4 Safari/537.36" modified="2025-08-14T11:38:55.832Z" version="22.0.2" etag="QAL8qkVkGMdZx9tP5xqS" type="device">
  <diagram name="Страница — 1" id="2oC8ghZdRw9uifEkCq3c">
    <mxGraphModel dx="2288" dy="1033" grid="1" gridSize="10" guides="1" tooltips="1" connect="1" arrows="1" fold="1" page="1" pageScale="1" pageWidth="827" pageHeight="1169" math="0" shadow="0">
      <root>
        <mxCell id="0" />
        <mxCell id="1" parent="0" />
        <mxCell id="dR3k8P7Z7epgvE_EUf3S-10" value="" style="rounded=0;whiteSpace=wrap;html=1;dashed=1;" parent="1" vertex="1">
          <mxGeometry x="414" y="290" width="626" height="225" as="geometry" />
        </mxCell>
        <mxCell id="dR3k8P7Z7epgvE_EUf3S-23" style="edgeStyle=orthogonalEdgeStyle;rounded=0;orthogonalLoop=1;jettySize=auto;html=1;exitX=1;exitY=0.5;exitDx=0;exitDy=0;exitPerimeter=0;entryX=0;entryY=0.5;entryDx=0;entryDy=0;" parent="1" source="dR3k8P7Z7epgvE_EUf3S-1" target="dR3k8P7Z7epgvE_EUf3S-21" edge="1">
          <mxGeometry relative="1" as="geometry">
            <Array as="points">
              <mxPoint x="370" y="295" />
              <mxPoint x="370" y="403" />
            </Array>
          </mxGeometry>
        </mxCell>
        <mxCell id="dR3k8P7Z7epgvE_EUf3S-1" value="&lt;span style=&quot;text-align: left;&quot;&gt;Финтех услуги&lt;/span&gt;" style="html=1;dashed=0;whiteSpace=wrap;shape=mxgraph.dfd.start" parent="1" vertex="1">
          <mxGeometry x="160" y="270" width="160" height="50" as="geometry" />
        </mxCell>
        <mxCell id="dR3k8P7Z7epgvE_EUf3S-24" style="edgeStyle=orthogonalEdgeStyle;rounded=0;orthogonalLoop=1;jettySize=auto;html=1;exitX=1;exitY=0.5;exitDx=0;exitDy=0;exitPerimeter=0;" parent="1" source="dR3k8P7Z7epgvE_EUf3S-3" target="dR3k8P7Z7epgvE_EUf3S-21" edge="1">
          <mxGeometry relative="1" as="geometry">
            <Array as="points">
              <mxPoint x="370" y="365" />
              <mxPoint x="370" y="403" />
            </Array>
          </mxGeometry>
        </mxCell>
        <mxCell id="dR3k8P7Z7epgvE_EUf3S-3" value="&lt;span style=&quot;text-align: left;&quot;&gt;Развитие медицинских ИИ моделей&lt;/span&gt;" style="html=1;dashed=0;whiteSpace=wrap;shape=mxgraph.dfd.start" parent="1" vertex="1">
          <mxGeometry x="160" y="340" width="160" height="50" as="geometry" />
        </mxCell>
        <mxCell id="dR3k8P7Z7epgvE_EUf3S-22" style="edgeStyle=orthogonalEdgeStyle;rounded=0;orthogonalLoop=1;jettySize=auto;html=1;exitX=1;exitY=0.5;exitDx=0;exitDy=0;exitPerimeter=0;entryX=0;entryY=0.5;entryDx=0;entryDy=0;" parent="1" source="dR3k8P7Z7epgvE_EUf3S-4" target="dR3k8P7Z7epgvE_EUf3S-21" edge="1">
          <mxGeometry relative="1" as="geometry">
            <Array as="points">
              <mxPoint x="370" y="225" />
              <mxPoint x="370" y="403" />
            </Array>
          </mxGeometry>
        </mxCell>
        <mxCell id="dR3k8P7Z7epgvE_EUf3S-4" value="&lt;span style=&quot;text-align: left;&quot;&gt;Производство медицинского оборудования&lt;/span&gt;" style="html=1;dashed=0;whiteSpace=wrap;shape=mxgraph.dfd.start" parent="1" vertex="1">
          <mxGeometry x="160" y="200" width="160" height="50" as="geometry" />
        </mxCell>
        <mxCell id="dR3k8P7Z7epgvE_EUf3S-25" style="edgeStyle=orthogonalEdgeStyle;rounded=0;orthogonalLoop=1;jettySize=auto;html=1;exitX=1;exitY=0.5;exitDx=0;exitDy=0;exitPerimeter=0;entryX=0;entryY=0.5;entryDx=0;entryDy=0;" parent="1" source="dR3k8P7Z7epgvE_EUf3S-5" target="dR3k8P7Z7epgvE_EUf3S-21" edge="1">
          <mxGeometry relative="1" as="geometry">
            <Array as="points">
              <mxPoint x="370" y="435" />
              <mxPoint x="370" y="403" />
            </Array>
          </mxGeometry>
        </mxCell>
        <mxCell id="dR3k8P7Z7epgvE_EUf3S-5" value="&lt;span style=&quot;text-align: left;&quot;&gt;Фармацевтика&lt;/span&gt;" style="html=1;dashed=0;whiteSpace=wrap;shape=mxgraph.dfd.start" parent="1" vertex="1">
          <mxGeometry x="160" y="410" width="160" height="50" as="geometry" />
        </mxCell>
        <mxCell id="dR3k8P7Z7epgvE_EUf3S-26" style="edgeStyle=orthogonalEdgeStyle;rounded=0;orthogonalLoop=1;jettySize=auto;html=1;exitX=1;exitY=0.5;exitDx=0;exitDy=0;exitPerimeter=0;entryX=0;entryY=0.5;entryDx=0;entryDy=0;" parent="1" source="dR3k8P7Z7epgvE_EUf3S-6" target="dR3k8P7Z7epgvE_EUf3S-21" edge="1">
          <mxGeometry relative="1" as="geometry">
            <Array as="points">
              <mxPoint x="370" y="505" />
              <mxPoint x="370" y="403" />
            </Array>
          </mxGeometry>
        </mxCell>
        <mxCell id="dR3k8P7Z7epgvE_EUf3S-6" value="&lt;span style=&quot;text-align: left;&quot;&gt;Продажа и обслуживание мед. оборудования&amp;nbsp;&lt;/span&gt;" style="html=1;dashed=0;whiteSpace=wrap;shape=mxgraph.dfd.start" parent="1" vertex="1">
          <mxGeometry x="160" y="480" width="160" height="50" as="geometry" />
        </mxCell>
        <mxCell id="dR3k8P7Z7epgvE_EUf3S-8" value="Хранилище данных" style="html=1;dashed=0;whiteSpace=wrap;shape=partialRectangle;right=0;" parent="1" vertex="1">
          <mxGeometry x="640" y="410" width="160" height="50" as="geometry" />
        </mxCell>
        <mxCell id="dR3k8P7Z7epgvE_EUf3S-11" value="Data Lakehouse" style="text;html=1;align=center;verticalAlign=middle;whiteSpace=wrap;rounded=0;" parent="1" vertex="1">
          <mxGeometry x="420" y="485" width="110" height="30" as="geometry" />
        </mxCell>
        <mxCell id="dR3k8P7Z7epgvE_EUf3S-15" value="" style="shape=curlyBracket;whiteSpace=wrap;html=1;rounded=1;labelPosition=left;verticalLabelPosition=middle;align=right;verticalAlign=middle;" parent="1" vertex="1">
          <mxGeometry x="100" y="210" width="40" height="370" as="geometry" />
        </mxCell>
        <mxCell id="dR3k8P7Z7epgvE_EUf3S-16" value="Бизнес-домены - источники структурированных и неструктурированных данных" style="text;html=1;align=right;verticalAlign=middle;whiteSpace=wrap;rounded=0;" parent="1" vertex="1">
          <mxGeometry x="-80" y="320" width="170" height="90" as="geometry" />
        </mxCell>
        <mxCell id="dR3k8P7Z7epgvE_EUf3S-20" value="Хранилище метаданных" style="html=1;dashed=0;whiteSpace=wrap;shape=partialRectangle;right=0;" parent="1" vertex="1">
          <mxGeometry x="640" y="340" width="160" height="50" as="geometry" />
        </mxCell>
        <mxCell id="dR3k8P7Z7epgvE_EUf3S-27" style="edgeStyle=orthogonalEdgeStyle;rounded=0;orthogonalLoop=1;jettySize=auto;html=1;exitX=1;exitY=0.25;exitDx=0;exitDy=0;" parent="1" source="dR3k8P7Z7epgvE_EUf3S-21" target="dR3k8P7Z7epgvE_EUf3S-20" edge="1">
          <mxGeometry relative="1" as="geometry" />
        </mxCell>
        <mxCell id="dR3k8P7Z7epgvE_EUf3S-28" style="edgeStyle=orthogonalEdgeStyle;rounded=0;orthogonalLoop=1;jettySize=auto;html=1;exitX=1;exitY=0.75;exitDx=0;exitDy=0;" parent="1" source="dR3k8P7Z7epgvE_EUf3S-21" target="dR3k8P7Z7epgvE_EUf3S-8" edge="1">
          <mxGeometry relative="1" as="geometry" />
        </mxCell>
        <mxCell id="dR3k8P7Z7epgvE_EUf3S-21" value="Процессинг структурированных и неструктурированных данных" style="html=1;dashed=0;whiteSpace=wrap;" parent="1" vertex="1">
          <mxGeometry x="450" y="371.71" width="140" height="61.59" as="geometry" />
        </mxCell>
        <mxCell id="dR3k8P7Z7epgvE_EUf3S-31" style="edgeStyle=orthogonalEdgeStyle;rounded=0;orthogonalLoop=1;jettySize=auto;html=1;exitX=0;exitY=0.25;exitDx=0;exitDy=0;" parent="1" source="dR3k8P7Z7epgvE_EUf3S-29" target="dR3k8P7Z7epgvE_EUf3S-20" edge="1">
          <mxGeometry relative="1" as="geometry" />
        </mxCell>
        <mxCell id="dR3k8P7Z7epgvE_EUf3S-32" style="edgeStyle=orthogonalEdgeStyle;rounded=0;orthogonalLoop=1;jettySize=auto;html=1;exitX=0;exitY=0.75;exitDx=0;exitDy=0;entryX=1;entryY=0.5;entryDx=0;entryDy=0;" parent="1" source="dR3k8P7Z7epgvE_EUf3S-29" target="dR3k8P7Z7epgvE_EUf3S-8" edge="1">
          <mxGeometry relative="1" as="geometry" />
        </mxCell>
        <mxCell id="SOdmAgsTZVgzwWmCqJ8E-11" style="edgeStyle=orthogonalEdgeStyle;rounded=0;orthogonalLoop=1;jettySize=auto;html=1;exitX=1;exitY=0.5;exitDx=0;exitDy=0;" edge="1" parent="1" source="dR3k8P7Z7epgvE_EUf3S-29" target="dR3k8P7Z7epgvE_EUf3S-34">
          <mxGeometry relative="1" as="geometry" />
        </mxCell>
        <mxCell id="SOdmAgsTZVgzwWmCqJ8E-12" style="edgeStyle=orthogonalEdgeStyle;rounded=0;orthogonalLoop=1;jettySize=auto;html=1;exitX=1;exitY=0.5;exitDx=0;exitDy=0;" edge="1" parent="1" source="dR3k8P7Z7epgvE_EUf3S-29" target="dR3k8P7Z7epgvE_EUf3S-36">
          <mxGeometry relative="1" as="geometry" />
        </mxCell>
        <mxCell id="dR3k8P7Z7epgvE_EUf3S-29" value="Витрины данных" style="html=1;dashed=0;whiteSpace=wrap;" parent="1" vertex="1">
          <mxGeometry x="870" y="371.71" width="140" height="61.59" as="geometry" />
        </mxCell>
        <mxCell id="dR3k8P7Z7epgvE_EUf3S-33" value="&lt;span style=&quot;text-align: left;&quot;&gt;Финтех услуги&lt;/span&gt;" style="html=1;dashed=0;whiteSpace=wrap;shape=mxgraph.dfd.start" parent="1" vertex="1">
          <mxGeometry x="1120" y="270" width="160" height="50" as="geometry" />
        </mxCell>
        <mxCell id="dR3k8P7Z7epgvE_EUf3S-34" value="&lt;span style=&quot;text-align: left;&quot;&gt;Развитие медицинских ИИ моделей&lt;/span&gt;" style="html=1;dashed=0;whiteSpace=wrap;shape=mxgraph.dfd.start" parent="1" vertex="1">
          <mxGeometry x="1120" y="340" width="160" height="50" as="geometry" />
        </mxCell>
        <mxCell id="dR3k8P7Z7epgvE_EUf3S-35" value="&lt;span style=&quot;text-align: left;&quot;&gt;Производство медицинского оборудования&lt;/span&gt;" style="html=1;dashed=0;whiteSpace=wrap;shape=mxgraph.dfd.start" parent="1" vertex="1">
          <mxGeometry x="1120" y="200" width="160" height="50" as="geometry" />
        </mxCell>
        <mxCell id="dR3k8P7Z7epgvE_EUf3S-36" value="&lt;span style=&quot;text-align: left;&quot;&gt;Фармацевтика&lt;/span&gt;" style="html=1;dashed=0;whiteSpace=wrap;shape=mxgraph.dfd.start" parent="1" vertex="1">
          <mxGeometry x="1120" y="410" width="160" height="50" as="geometry" />
        </mxCell>
        <mxCell id="dR3k8P7Z7epgvE_EUf3S-37" value="&lt;span style=&quot;text-align: left;&quot;&gt;Продажа и обслуживание мед. оборудования&amp;nbsp;&lt;/span&gt;" style="html=1;dashed=0;whiteSpace=wrap;shape=mxgraph.dfd.start" parent="1" vertex="1">
          <mxGeometry x="1120" y="480" width="160" height="50" as="geometry" />
        </mxCell>
        <mxCell id="dR3k8P7Z7epgvE_EUf3S-39" value="&lt;span style=&quot;text-align: right;&quot;&gt;Бизнес-домены -&amp;nbsp;&lt;/span&gt;BI и операционные потребители данных" style="text;html=1;align=left;verticalAlign=middle;whiteSpace=wrap;rounded=0;" parent="1" vertex="1">
          <mxGeometry x="1330" y="310" width="120" height="90" as="geometry" />
        </mxCell>
        <mxCell id="dR3k8P7Z7epgvE_EUf3S-40" value="" style="shape=curlyBracket;whiteSpace=wrap;html=1;rounded=1;flipH=1;labelPosition=right;verticalLabelPosition=middle;align=left;verticalAlign=middle;" parent="1" vertex="1">
          <mxGeometry x="1300" y="200.01" width="20" height="309.99" as="geometry" />
        </mxCell>
        <mxCell id="dR3k8P7Z7epgvE_EUf3S-41" value="Каждое бизнес-подразделение имеет в команде своих аналитиков, и использует Data Lake по методологии Data Mesh" style="shape=note;whiteSpace=wrap;html=1;backgroundOutline=1;fontColor=#000000;darkOpacity=0.05;fillColor=#FFF9B2;strokeColor=none;fillStyle=solid;direction=west;gradientDirection=north;gradientColor=#FFF2A1;shadow=1;size=20;pointerEvents=1;" parent="1" vertex="1">
          <mxGeometry x="1330" y="392.5" width="170" height="160" as="geometry" />
        </mxCell>
        <mxCell id="SOdmAgsTZVgzwWmCqJ8E-2" style="edgeStyle=orthogonalEdgeStyle;rounded=0;orthogonalLoop=1;jettySize=auto;html=1;exitX=1;exitY=0.5;exitDx=0;exitDy=0;exitPerimeter=0;entryX=0;entryY=0.5;entryDx=0;entryDy=0;" edge="1" parent="1" source="SOdmAgsTZVgzwWmCqJ8E-1" target="dR3k8P7Z7epgvE_EUf3S-21">
          <mxGeometry relative="1" as="geometry">
            <Array as="points">
              <mxPoint x="370" y="575" />
              <mxPoint x="370" y="403" />
            </Array>
          </mxGeometry>
        </mxCell>
        <mxCell id="SOdmAgsTZVgzwWmCqJ8E-1" value="&lt;span style=&quot;text-align: left;&quot;&gt;Медицинские услуги (Клиники)&lt;/span&gt;" style="html=1;dashed=0;whiteSpace=wrap;shape=mxgraph.dfd.start" vertex="1" parent="1">
          <mxGeometry x="160" y="550" width="160" height="50" as="geometry" />
        </mxCell>
        <mxCell id="SOdmAgsTZVgzwWmCqJ8E-3" value="Медицинские услуги (Клиники)" style="html=1;dashed=0;whiteSpace=wrap;shape=mxgraph.dfd.start" vertex="1" parent="1">
          <mxGeometry x="1120" y="550" width="160" height="50" as="geometry" />
        </mxCell>
        <mxCell id="SOdmAgsTZVgzwWmCqJ8E-9" style="edgeStyle=orthogonalEdgeStyle;rounded=0;orthogonalLoop=1;jettySize=auto;html=1;exitX=1;exitY=0.5;exitDx=0;exitDy=0;entryX=0;entryY=0.5;entryDx=0;entryDy=0;entryPerimeter=0;" edge="1" parent="1" source="dR3k8P7Z7epgvE_EUf3S-29" target="dR3k8P7Z7epgvE_EUf3S-35">
          <mxGeometry relative="1" as="geometry" />
        </mxCell>
        <mxCell id="SOdmAgsTZVgzwWmCqJ8E-10" style="edgeStyle=orthogonalEdgeStyle;rounded=0;orthogonalLoop=1;jettySize=auto;html=1;exitX=1;exitY=0.5;exitDx=0;exitDy=0;entryX=0;entryY=0.5;entryDx=0;entryDy=0;entryPerimeter=0;" edge="1" parent="1" source="dR3k8P7Z7epgvE_EUf3S-29" target="dR3k8P7Z7epgvE_EUf3S-33">
          <mxGeometry relative="1" as="geometry" />
        </mxCell>
        <mxCell id="SOdmAgsTZVgzwWmCqJ8E-13" style="edgeStyle=orthogonalEdgeStyle;rounded=0;orthogonalLoop=1;jettySize=auto;html=1;exitX=1;exitY=0.5;exitDx=0;exitDy=0;entryX=0;entryY=0.5;entryDx=0;entryDy=0;entryPerimeter=0;" edge="1" parent="1" source="dR3k8P7Z7epgvE_EUf3S-29" target="dR3k8P7Z7epgvE_EUf3S-37">
          <mxGeometry relative="1" as="geometry" />
        </mxCell>
        <mxCell id="SOdmAgsTZVgzwWmCqJ8E-14" style="edgeStyle=orthogonalEdgeStyle;rounded=0;orthogonalLoop=1;jettySize=auto;html=1;exitX=1;exitY=0.5;exitDx=0;exitDy=0;entryX=0;entryY=0.5;entryDx=0;entryDy=0;entryPerimeter=0;" edge="1" parent="1" source="dR3k8P7Z7epgvE_EUf3S-29" target="SOdmAgsTZVgzwWmCqJ8E-3">
          <mxGeometry relative="1" as="geometry" />
        </mxCell>
      </root>
    </mxGraphModel>
  </diagram>
</mxfile>
